# xmcd
#
# Track frame offsets:
#	150
#	20857
#	41637
#	61225
#
# Disc length: 1047 seconds
#
# Revision: 1
# Processed by: cddbd v1.5.1PL0 Copyright (c) Steve Scherf et al.
# Submitted via: CDex 1.50Beta5
#
DISCID=31041504
DTITLE=BETCHIN’ - Merry Merry Sweet Love
DYEAR=1999
DGENRE=Rock
TTITLE0=Merry Merry Sweet Love
TTITLE1=Merry Merry Sweet Love
TTITLE2=Merry Merry Sweet Love
TTITLE3=GirlgirlgirlLadyladylady
EXTD=
EXTT0=
EXTT1=
EXTT2=
EXTT3=
PLAYORDER=
